# xmcd CD database file
#
# Track frame offsets:
#	150
#	22921
#	55286
#	80876
#	105625
#	133167
#	163940
#	194920
#	230551
#	268391
#	287646
#
# Disc length: 4286 seconds
#
# Revision: 0
# Processed by: cddbd v1.5.2PL0 Copyright (c) Steve Scherf et al.
# Submitted via: CDex 1.70beta2
#
DISCID=ac10bc0b
DTITLE=Simple Men - live masters
DYEAR=2007
DGENRE=Blues
TTITLE0=Xallé bou
TTITLE1=Louisiana
TTITLE2=Got my mojo working
TTITLE3=Shine a light
TTITLE4=Locomotive Breath
TTITLE5=Sey
TTITLE6=Shake your hips
TTITLE7=That's Allright
TTITLE8=Hey Bo Didley
TTITLE9=Can't be satisfied
TTITLE10=Call me the breeze
EXTD=YEAR: 2007
EXTT0=
EXTT1=
EXTT2=
EXTT3=
EXTT4=
EXTT5=
EXTT6=
EXTT7=
EXTT8=
EXTT9=
EXTT10=
PLAYORDER=
